<svg width="100" height="15" viewBox="0 0 100 15" fill="none" xmlns="http://www.w3.org/2000/svg">
<path d="M4.49432 11H0.884943V0.818182H4.52415C5.5483 0.818182 6.42992 1.02202 7.16903 1.42969C7.90814 1.83404 8.47656 2.41572 8.87429 3.17472C9.27533 3.93371 9.47585 4.84186 9.47585 5.89915C9.47585 6.95975 9.27533 7.87121 8.87429 8.63352C8.47656 9.39583 7.90483 9.98082 7.15909 10.3885C6.41667 10.7962 5.52841 11 4.49432 11ZM3.03764 9.15554H4.40483C5.04119 9.15554 5.57647 9.04285 6.01065 8.81747C6.44815 8.58878 6.77628 8.2358 6.99503 7.75852C7.21709 7.27794 7.32812 6.65814 7.32812 5.89915C7.32812 5.14678 7.21709 4.53196 6.99503 4.05469C6.77628 3.57741 6.44981 3.22609 6.01562 3.00071C5.58144 2.77533 5.04616 2.66264 4.4098 2.66264H3.03764V9.15554ZM11.0307 11V3.36364H13.1486V11H11.0307ZM12.0946 2.37926C11.7798 2.37926 11.5096 2.27486 11.2843 2.06605C11.0622 1.85393 10.9512 1.60038 10.9512 1.3054C10.9512 1.01373 11.0622 0.763494 11.2843 0.554688C11.5096 0.342566 11.7798 0.236505 12.0946 0.236505C12.4095 0.236505 12.678 0.342566 12.9 0.554688C13.1254 0.763494 13.2381 1.01373 13.2381 1.3054C13.2381 1.60038 13.1254 1.85393 12.9 2.06605C12.678 2.27486 12.4095 2.37926 12.0946 2.37926ZM18.2855 14.0227C17.5994 14.0227 17.0111 13.9283 16.5206 13.7393C16.0334 13.5537 15.6456 13.3002 15.3572 12.9787C15.0689 12.6572 14.8816 12.2959 14.7955 11.8949L16.7543 11.6314C16.8139 11.7839 16.9084 11.9264 17.0376 12.0589C17.1669 12.1915 17.3376 12.2976 17.5497 12.3771C17.7652 12.46 18.027 12.5014 18.3352 12.5014C18.7959 12.5014 19.1754 12.3887 19.4737 12.1634C19.7753 11.9413 19.9261 11.5684 19.9261 11.0447V9.64773H19.8366C19.7438 9.85985 19.6046 10.0604 19.419 10.2493C19.2334 10.4382 18.9948 10.5923 18.7031 10.7116C18.4115 10.831 18.0634 10.8906 17.6591 10.8906C17.0857 10.8906 16.5637 10.758 16.093 10.4929C15.6257 10.2244 15.2528 9.8151 14.9744 9.26491C14.6993 8.71141 14.5618 8.01207 14.5618 7.1669C14.5618 6.30185 14.7027 5.57931 14.9844 4.99929C15.2661 4.41927 15.6406 3.98509 16.108 3.69673C16.5786 3.40838 17.094 3.2642 17.6541 3.2642C18.0817 3.2642 18.4396 3.33712 18.728 3.48295C19.0163 3.62547 19.2483 3.80445 19.424 4.01989C19.603 4.23201 19.7405 4.44081 19.8366 4.64631H19.9162V3.36364H22.0192V11.0746C22.0192 11.7242 21.8601 12.2678 21.5419 12.7053C21.2237 13.1428 20.7829 13.4709 20.2195 13.6896C19.6593 13.9117 19.0147 14.0227 18.2855 14.0227ZM18.3303 9.29972C18.6716 9.29972 18.96 9.2152 19.1953 9.04616C19.4339 8.87382 19.6162 8.62855 19.7422 8.31037C19.8714 7.98887 19.9361 7.6044 19.9361 7.15696C19.9361 6.70952 19.8731 6.32173 19.7472 5.99361C19.6212 5.66217 19.4389 5.4053 19.2003 5.22301C18.9616 5.04072 18.6716 4.94957 18.3303 4.94957C17.9822 4.94957 17.6889 5.04403 17.4503 5.23295C17.2116 5.41856 17.031 5.67708 16.9084 6.00852C16.7857 6.33996 16.7244 6.72277 16.7244 7.15696C16.7244 7.59777 16.7857 7.97893 16.9084 8.30043C17.0343 8.61861 17.215 8.86553 17.4503 9.04119C17.6889 9.21354 17.9822 9.29972 18.3303 9.29972ZM23.7045 11V3.36364H25.8224V11H23.7045ZM24.7685 2.37926C24.4536 2.37926 24.1835 2.27486 23.9581 2.06605C23.736 1.85393 23.625 1.60038 23.625 1.3054C23.625 1.01373 23.736 0.763494 23.9581 0.554688C24.1835 0.342566 24.4536 0.236505 24.7685 0.236505C25.0833 0.236505 25.3518 0.342566 25.5739 0.554688C25.7992 0.763494 25.9119 1.01373 25.9119 1.3054C25.9119 1.60038 25.7992 1.85393 25.5739 2.06605C25.3518 2.27486 25.0833 2.37926 24.7685 2.37926ZM31.5808 3.36364V4.95455H26.9821V3.36364H31.5808ZM28.0261 1.53409H30.144V8.65341C30.144 8.84896 30.1738 9.00142 30.2335 9.1108C30.2931 9.21686 30.376 9.29143 30.4821 9.33452C30.5914 9.3776 30.7174 9.39915 30.8599 9.39915C30.9593 9.39915 31.0588 9.39086 31.1582 9.37429C31.2576 9.3544 31.3339 9.33949 31.3869 9.32955L31.72 10.9055C31.6139 10.9387 31.4648 10.9768 31.2725 11.0199C31.0803 11.0663 30.8467 11.0945 30.5716 11.1044C30.0611 11.1243 29.6137 11.0563 29.2292 10.9006C28.8481 10.7448 28.5514 10.5028 28.3393 10.1747C28.1272 9.84659 28.0228 9.43229 28.0261 8.93182V1.53409ZM35.138 11.1442C34.6507 11.1442 34.2166 11.0597 33.8354 10.8906C33.4542 10.7183 33.1526 10.4647 32.9306 10.13C32.7118 9.7919 32.6025 9.37098 32.6025 8.86719C32.6025 8.44295 32.6803 8.08665 32.8361 7.7983C32.9919 7.50994 33.204 7.27794 33.4725 7.10227C33.7409 6.92661 34.0459 6.79403 34.3873 6.70455C34.7319 6.61506 35.0932 6.55208 35.4711 6.51562C35.9152 6.46922 36.2731 6.42614 36.5449 6.38636C36.8167 6.34328 37.0139 6.2803 37.1365 6.19744C37.2592 6.11458 37.3205 5.99195 37.3205 5.82955V5.79972C37.3205 5.48485 37.2211 5.24124 37.0222 5.06889C36.8266 4.89654 36.5482 4.81037 36.187 4.81037C35.8058 4.81037 35.5025 4.89489 35.2772 5.06392C35.0518 5.22964 34.9026 5.43845 34.8297 5.69034L32.8709 5.53125C32.9703 5.06723 33.1659 4.66619 33.4576 4.32812C33.7492 3.98674 34.1254 3.7249 34.5861 3.54261C35.0501 3.35701 35.5871 3.2642 36.1969 3.2642C36.6212 3.2642 37.0272 3.31392 37.415 3.41335C37.806 3.51278 38.1524 3.6669 38.454 3.87571C38.7589 4.08452 38.9992 4.35298 39.1749 4.68111C39.3506 5.00592 39.4384 5.39536 39.4384 5.84943V11H37.4299V9.94105H37.3702C37.2476 10.1797 37.0835 10.3902 36.878 10.5724C36.6725 10.7514 36.4256 10.8923 36.1373 10.995C35.8489 11.0945 35.5158 11.1442 35.138 11.1442ZM35.7445 9.68253C36.056 9.68253 36.3311 9.62121 36.5698 9.49858C36.8084 9.37263 36.9957 9.2036 37.1316 8.99148C37.2675 8.77936 37.3354 8.53906 37.3354 8.2706V7.46023C37.2691 7.50331 37.178 7.54309 37.062 7.57955C36.9493 7.61269 36.8217 7.64418 36.6792 7.67401C36.5366 7.70052 36.3941 7.72538 36.2516 7.74858C36.1091 7.76847 35.9798 7.78669 35.8638 7.80327C35.6152 7.83973 35.3981 7.89773 35.2125 7.97727C35.0269 8.05682 34.8828 8.16454 34.78 8.30043C34.6773 8.433 34.6259 8.59872 34.6259 8.79759C34.6259 9.08594 34.7303 9.30634 34.9391 9.45881C35.1512 9.60795 35.4197 9.68253 35.7445 9.68253ZM43.1994 0.818182V11H41.0815V0.818182H43.1994ZM49.9309 11H47.6241L51.139 0.818182H53.9132L57.4231 11H55.1163L52.5659 3.14489H52.4863L49.9309 11ZM49.7868 6.99787H55.2356V8.67827H49.7868V6.99787ZM61.6937 14.0227C61.0076 14.0227 60.4193 13.9283 59.9288 13.7393C59.4416 13.5537 59.0538 13.3002 58.7654 12.9787C58.4771 12.6572 58.2898 12.2959 58.2037 11.8949L60.1625 11.6314C60.2221 11.7839 60.3166 11.9264 60.4458 12.0589C60.5751 12.1915 60.7458 12.2976 60.9579 12.3771C61.1734 12.46 61.4352 12.5014 61.7434 12.5014C62.2041 12.5014 62.5836 12.3887 62.8819 12.1634C63.1835 11.9413 63.3343 11.5684 63.3343 11.0447V9.64773H63.2449C63.152 9.85985 63.0128 10.0604 62.8272 10.2493C62.6416 10.4382 62.403 10.5923 62.1113 10.7116C61.8197 10.831 61.4717 10.8906 61.0673 10.8906C60.4939 10.8906 59.9719 10.758 59.5012 10.4929C59.0339 10.2244 58.661 9.8151 58.3826 9.26491C58.1075 8.71141 57.97 8.01207 57.97 7.1669C57.97 6.30185 58.1109 5.57931 58.3926 4.99929C58.6743 4.41927 59.0488 3.98509 59.5162 3.69673C59.9868 3.40838 60.5022 3.2642 61.0623 3.2642C61.4899 3.2642 61.8478 3.33712 62.1362 3.48295C62.4245 3.62547 62.6565 3.80445 62.8322 4.01989C63.0112 4.23201 63.1487 4.44081 63.2449 4.64631H63.3244V3.36364H65.4274V11.0746C65.4274 11.7242 65.2683 12.2678 64.9501 12.7053C64.6319 13.1428 64.1911 13.4709 63.6277 13.6896C63.0675 13.9117 62.4229 14.0227 61.6937 14.0227ZM61.7385 9.29972C62.0798 9.29972 62.3682 9.2152 62.6035 9.04616C62.8422 8.87382 63.0244 8.62855 63.1504 8.31037C63.2797 7.98887 63.3443 7.6044 63.3443 7.15696C63.3443 6.70952 63.2813 6.32173 63.1554 5.99361C63.0294 5.66217 62.8471 5.4053 62.6085 5.22301C62.3699 5.04072 62.0798 4.94957 61.7385 4.94957C61.3904 4.94957 61.0971 5.04403 60.8585 5.23295C60.6199 5.41856 60.4392 5.67708 60.3166 6.00852C60.194 6.33996 60.1326 6.72277 60.1326 7.15696C60.1326 7.59777 60.194 7.97893 60.3166 8.30043C60.4425 8.61861 60.6232 8.86553 60.8585 9.04119C61.0971 9.21354 61.3904 9.29972 61.7385 9.29972ZM70.5929 11.1491C69.8074 11.1491 69.1312 10.9901 68.5645 10.6719C68.001 10.3504 67.5668 9.89631 67.2619 9.30966C66.957 8.7197 66.8045 8.02202 66.8045 7.21662C66.8045 6.43111 66.957 5.74171 67.2619 5.14844C67.5668 4.55516 67.996 4.0928 68.5495 3.76136C69.1064 3.42992 69.7593 3.2642 70.5083 3.2642C71.0121 3.2642 71.4811 3.34541 71.9153 3.50781C72.3528 3.6669 72.734 3.9072 73.0588 4.22869C73.3869 4.55019 73.6421 4.95455 73.8244 5.44176C74.0067 5.92566 74.0978 6.49242 74.0978 7.14205V7.72372H67.6497V6.41122H72.1042C72.1042 6.1063 72.0379 5.83617 71.9054 5.60085C71.7728 5.36553 71.5888 5.18158 71.3535 5.04901C71.1215 4.91312 70.8514 4.84517 70.5431 4.84517C70.2217 4.84517 69.9366 4.91974 69.688 5.06889C69.4428 5.21473 69.2505 5.41193 69.1113 5.66051C68.9721 5.90578 68.9009 6.17921 68.8975 6.48082V7.72869C68.8975 8.10653 68.9672 8.433 69.1064 8.7081C69.2489 8.98319 69.4494 9.19531 69.7079 9.34446C69.9664 9.49361 70.273 9.56818 70.6277 9.56818C70.863 9.56818 71.0784 9.53504 71.274 9.46875C71.4695 9.40246 71.6369 9.30303 71.7761 9.17045C71.9153 9.03788 72.0214 8.87547 72.0943 8.68324L74.0531 8.8125C73.9537 9.28314 73.7498 9.69413 73.4416 10.0455C73.1367 10.3935 72.7422 10.6652 72.2583 10.8608C71.7778 11.053 71.2226 11.1491 70.5929 11.1491ZM77.5978 6.58523V11H75.4799V3.36364H77.4984V4.71094H77.5879C77.7569 4.26681 78.0403 3.91548 78.438 3.65696C78.8358 3.39512 79.318 3.2642 79.8848 3.2642C80.4151 3.2642 80.8774 3.38021 81.2718 3.61222C81.6663 3.84422 81.9728 4.17566 82.1916 4.60653C82.4103 5.03409 82.5197 5.54451 82.5197 6.13778V11H80.4018V6.51562C80.4051 6.0483 80.2858 5.68371 80.0439 5.42188C79.8019 5.15672 79.4688 5.02415 79.0446 5.02415C78.7595 5.02415 78.5076 5.08546 78.2889 5.2081C78.0734 5.33073 77.9044 5.50971 77.7818 5.74503C77.6625 5.97704 77.6011 6.2571 77.5978 6.58523ZM87.6392 11.1491C86.857 11.1491 86.1842 10.9834 85.6207 10.652C85.0606 10.3172 84.6297 9.85322 84.3281 9.25994C84.0298 8.66667 83.8807 7.9839 83.8807 7.21165C83.8807 6.42945 84.0315 5.74337 84.3331 5.15341C84.638 4.56013 85.0705 4.09777 85.6307 3.76633C86.1908 3.43158 86.857 3.2642 87.6293 3.2642C88.2955 3.2642 88.8788 3.38518 89.3793 3.62713C89.8797 3.86908 90.2758 4.20881 90.5675 4.64631C90.8591 5.08381 91.0199 5.59754 91.0497 6.1875H89.0511C88.9948 5.80634 88.8456 5.49976 88.6037 5.26776C88.3651 5.03243 88.0518 4.91477 87.6641 4.91477C87.3359 4.91477 87.0492 5.00426 86.804 5.18324C86.562 5.3589 86.3731 5.61577 86.2372 5.95384C86.1013 6.2919 86.0334 6.70123 86.0334 7.18182C86.0334 7.66903 86.0997 8.08333 86.2322 8.42472C86.3681 8.7661 86.5587 9.02628 86.804 9.20526C87.0492 9.38423 87.3359 9.47372 87.6641 9.47372C87.906 9.47372 88.1231 9.42401 88.3153 9.32457C88.5109 9.22514 88.6716 9.08097 88.7976 8.89205C88.9268 8.69981 89.0114 8.46946 89.0511 8.20099H91.0497C91.0166 8.78433 90.8575 9.29806 90.5724 9.74219C90.2907 10.183 89.9013 10.5277 89.4041 10.7763C88.907 11.0249 88.3187 11.1491 87.6392 11.1491ZM93.7132 13.8636C93.4448 13.8636 93.1929 13.8421 92.9576 13.799C92.7256 13.7592 92.5333 13.7079 92.3809 13.6449L92.8581 12.0639C93.1067 12.1402 93.3304 12.1816 93.5293 12.1882C93.7315 12.1948 93.9055 12.1484 94.0513 12.049C94.2005 11.9496 94.3214 11.7805 94.4142 11.5419L94.5385 11.2188L91.7992 3.36364H94.0265L95.6074 8.97159H95.687L97.2828 3.36364H99.525L96.557 11.8253C96.4145 12.2363 96.2206 12.5942 95.9753 12.8991C95.7334 13.2074 95.4268 13.4444 95.0556 13.6101C94.6844 13.7791 94.2369 13.8636 93.7132 13.8636Z" fill="#272D38"/>
</svg>
